<?xml version="1.0" standalone="no"?>
<!DOCTYPE svg PUBLIC "-//W3C//DTD SVG 20010904//EN"
 "http://www.w3.org/TR/2001/REC-SVG-20010904/DTD/svg10.dtd">
<svg version="1.0" xmlns="http://www.w3.org/2000/svg"
 width="256.000000pt" height="256.000000pt" viewBox="0 0 256.000000 256.000000"
 preserveAspectRatio="xMidYMid meet">
<metadata>
Created by potrace 1.11, written by Peter Selinger 2001-2013
</metadata>
<g transform="translate(0.000000,256.000000) scale(0.100000,-0.100000)"
fill="#000000" stroke="none">
<path d="M869 2010 c0 -8 -2 -24 -5 -35 -2 -11 -6 -38 -9 -60 -3 -22 -8 -51
-10 -65 -2 -14 -7 -45 -10 -69 -3 -23 -7 -55 -9 -70 -3 -14 -7 -44 -10 -66
-10 -77 -16 -121 -20 -141 -2 -12 -7 -45 -11 -75 -3 -30 -8 -65 -10 -79 -2
-14 -7 -43 -9 -65 -3 -22 -8 -49 -10 -61 -2 -11 -7 -47 -10 -80 -4 -32 -9 -68
-11 -79 -2 -11 -7 -40 -10 -65 -3 -25 -7 -54 -9 -66 -2 -12 -7 -43 -10 -70
-11 -84 -18 -134 -30 -219 -2 -11 -7 -46 -11 -77 l-7 -58 155 0 c174 0 160 -6
172 80 3 25 8 56 10 70 2 14 6 45 10 70 6 50 16 117 20 141 2 9 6 40 10 70 3
30 11 82 16 117 11 73 21 152 22 170 1 34 14 3 193 -463 36 -93 72 -184 80
-202 8 -17 14 -36 14 -42 0 -8 59 -11 190 -11 108 0 190 4 190 9 0 9 -60 153
-78 187 -6 10 -32 69 -58 129 -44 102 -92 212 -115 260 -29 65 -99 231 -99
238 0 5 35 54 78 110 196 257 429 563 434 572 8 13 -340 12 -351 -1 -5 -5 -51
-72 -104 -149 -53 -77 -102 -147 -110 -156 -8 -9 -16 -21 -18 -26 -10 -23
-215 -312 -222 -313 -5 0 -6 4 -3 8 2 4 8 35 11 67 4 33 9 69 11 80 3 11 7 38
10 60 3 22 7 54 10 70 3 17 6 44 8 60 9 77 17 137 30 215 8 47 12 87 10 89 -1
2 -73 4 -158 5 -132 1 -156 -1 -157 -14z"/>
</g>
</svg>
